<svg width="32" height="32" viewBox="0 0 32 32" fill="none" xmlns="http://www.w3.org/2000/svg">
<rect width="32" height="32" rx="16" fill="white" fill-opacity="0.15" style="fill:white;fill-opacity:0.15;"/>
<path d="M15.9316 10.1025C16.6627 10.1025 17.3065 10.2484 17.8633 10.54C18.4239 10.8279 18.8614 11.2217 19.1758 11.7217C19.4902 12.2179 19.6475 12.7783 19.6475 13.4033C19.6475 13.835 19.5661 14.2572 19.4033 14.6699C19.2443 15.0827 18.9659 15.5433 18.5684 16.0508C18.1706 16.5546 17.6175 17.167 16.9092 17.8867L14.5967 20.3066V20.3916H19.835V21.8975H12.1758V20.625L16.1133 16.5449C16.5336 16.1019 16.8806 15.7141 17.1533 15.3809C17.4298 15.0437 17.6361 14.723 17.7725 14.4199C17.9087 14.117 17.9775 13.7949 17.9775 13.4541C17.9775 13.0679 17.8859 12.7343 17.7041 12.4541C17.5223 12.1702 17.2742 11.9522 16.96 11.8008C16.6456 11.6455 16.2913 11.5684 15.8975 11.5684C15.4808 11.5684 15.1172 11.6538 14.8066 11.8242C14.4963 11.9946 14.2574 12.2346 14.0908 12.5449C13.9242 12.8555 13.8408 13.2201 13.8408 13.6367H12.165C12.165 12.9284 12.3276 12.3086 12.6533 11.7783C12.9791 11.248 13.426 10.8366 13.9941 10.5449C14.5623 10.2495 15.2082 10.1025 15.9316 10.1025Z" fill="var(--text, #010104)" style="fill:#010104;fill:color(display-p3 0.0039 0.0039 0.0157);fill-opacity:1;"/>
</svg>
